<svg xmlns="http://www.w3.org/2000/svg" width="255" height="69" fill="none"><g clip-path="url(#a)"><path fill="#0278FE" d="M111.419 2a2 2 0 0 1 2-2h28a2 2 0 0 1 2 2v28a2 2 0 0 1-2 2h-28a2 2 0 0 1-2-2V2Z"/><path fill="#2A2C2F" d="M143.419 6h-32v2h32V6Z"/><path fill="#2A2C2F" d="M124.419 6h-2v26h2V6Z"/><path fill="#fff" d="m118.731 68.744.838-2.784h4.801l.838 2.784h4.262L124.669 54.2h-5.398l-4.801 14.545h4.261Zm1.733-5.739 1.449-4.8h.114l1.449 4.8h-3.012ZM130.871 68.744h3.949v-4.801h1.363l2.557 4.801h4.29l-2.955-5.426c1.549-.746 2.472-2.159 2.472-4.176 0-3.097-2.166-4.943-5.398-4.943h-6.278v14.545Zm3.949-7.87v-3.522h1.392c1.385 0 2.216.54 2.216 1.79 0 1.243-.831 1.733-2.216 1.733h-1.392ZM143.833 57.38h4.375v11.364h3.892V57.38h4.375V54.2h-12.642v3.181ZM171.391 59h3.991c-.305-2.92-2.954-5-6.392-5-3.92 0-7.102 2.699-7.102 7.5 0 4.602 2.884 7.443 7.131 7.443 3.807 0 6.534-2.33 6.534-6.307V60.62h-6.449v2.813h2.642c-.035 1.264-.93 2.074-2.699 2.074-2.045 0-3.096-1.506-3.096-4.063 0-2.521 1.136-4.005 3.125-4.005 1.235 0 2.074.568 2.315 1.562ZM180.723 68.744l.838-2.784h4.802l.838 2.784h4.261L186.661 54.2h-5.398l-4.801 14.545h4.261Zm1.733-5.739 1.449-4.8h.114l1.449 4.8h-3.012ZM192.863 68.744h9.83v-3.182h-5.881V54.2h-3.949v14.545ZM204.289 68.744h9.829v-3.182h-5.88V54.2h-3.949v14.545ZM215.715 68.744h10.454v-3.182h-6.506v-2.5h5.995v-3.181h-5.995v-2.5h6.534v-3.182h-10.482v14.545ZM228.156 68.744h3.949v-4.801h1.363l2.557 4.801h4.29l-2.955-5.426c1.549-.746 2.472-2.159 2.472-4.176 0-3.097-2.166-4.943-5.398-4.943h-6.278v14.545Zm3.949-7.87v-3.522h1.392c1.385 0 2.216.54 2.216 1.79 0 1.243-.831 1.733-2.216 1.733h-1.392ZM240.235 54.199l5.341 9.971v4.574h3.92V64.17l5.341-9.971h-4.403l-2.841 5.909h-.114l-2.84-5.91h-4.404ZM109.056 54.199v14.545h-3.296l-5.255-7.642h-.085v7.642h-3.95V54.2h3.353l5.17 7.613h.114V54.2h3.949ZM84.03 68.744V54.2h10.483v3.181H87.98v2.5h5.994v3.182H87.98v2.5h6.506v3.182H84.03ZM69.902 57.38V54.2h12.642v3.181H78.17v11.364h-3.892V57.38h-4.375ZM57.858 68.744V54.2h10.483v3.181h-6.534v2.5h5.995v3.182h-5.995v2.5h6.506v3.182H57.858ZM46.432 68.744V54.2h3.949v11.363h5.88v3.182h-9.829ZM33.307 68.744V54.2h6.279c1.08 0 2.024.213 2.833.639a4.64 4.64 0 0 1 1.89 1.797c.45.772.674 1.674.674 2.706 0 1.041-.232 1.943-.696 2.706a4.573 4.573 0 0 1-1.939 1.761c-.828.412-1.797.618-2.904.618h-3.75v-3.068h2.954c.464 0 .86-.08 1.186-.242.331-.165.585-.4.76-.703.18-.303.27-.66.27-1.072 0-.417-.09-.772-.27-1.066a1.693 1.693 0 0 0-.76-.681c-.327-.161-.722-.242-1.186-.242h-1.392v11.392h-3.949ZM31.436 54.199v14.545h-3.949V54.2h3.95ZM14.128 68.744V54.2h6.278c1.08 0 2.024.196 2.834.59.81.392 1.44.958 1.89 1.697.45.738.674 1.624.674 2.656 0 1.042-.232 1.92-.696 2.635-.46.715-1.106 1.255-1.939 1.62-.829.364-1.797.546-2.905.546h-3.75v-3.068h2.955c.464 0 .86-.057 1.186-.17a1.5 1.5 0 0 0 .76-.562c.18-.255.27-.59.27-1.001 0-.417-.09-.755-.27-1.016a1.508 1.508 0 0 0-.76-.582c-.327-.128-.722-.192-1.186-.192h-1.392v11.392h-3.95Zm8.523-6.676 3.636 6.676h-4.29l-3.55-6.676h4.204ZM0 57.38V54.2h12.642v3.181H8.267v11.364H4.375V57.38H0Z"/></g><defs><clipPath id="a"><path fill="#fff" d="M0 0h254.837v68.943H0z"/></clipPath></defs></svg>